<?xml version="1.0" encoding="UTF-8"?>
<svg version="1.1" viewBox="0 0 1200 1092" width="300" height="273" xmlns="http://www.w3.org/2000/svg">
<path transform="translate(0)" d="m0 0h1200v1092h-1200z" fill="#F7F7F8"/>
<path transform="translate(234,37)" d="m0 0h12l22 2 24 5 18 6 24 11 16 10 12 9 14 12 9 9 9 11 9 12 9 15 8 16 6 15 6 21 5 29h326l1-1 4-25 7-25 9-21 8-15 10-15 8-10 11-12 8-8 11-9 14-10 15-9 19-9 21-7 18-4 26-3h17l20 2 20 4 20 6 25 11 18 11 13 10 14 12 7 7 9 11 10 13 11 19 9 19 7 22 4 18 2 15v35l-4 25-6 21-8 20-9 17-10 15-8 10-11 12-10 10-14 11-10 7-17 10-18 8-18 6-22 5-15 2h-35l-26-4-24-7-14-5-9 15-16 28-30 52-11 19-14 24-12 21-15 26-10 17-15 26-12 21-14 24-6 10 16 13 10 9 7 8 10 12 10 15 7 12 10 23 6 18 4 19 2 18v25l-3 24-5 20-6 18-10 21-11 18-13 16-11 12-12 11-19 14-18 10-17 8-26 8-23 4-8 1h-32l-27-4-21-6-15-6-16-8-12-7-14-10-14-12-14-14-13-17-8-13-9-16-8-20-6-22-3-15-1-9v-35l4-26 5-17 7-19 10-19 10-16 18-22h2l2-4 13-12 11-8-2-5-10-18-14-24-15-26-14-24-30-52-14-24-15-26-14-24-15-26-16-28-3-5v-2l-10 3-16 6-20 5-20 3h-36l-26-4-24-7-18-8-17-9-12-8-14-11-15-14-7-8-10-13-10-15-9-17-8-21-5-18-3-16-1-8v-39l4-24 6-21 8-20 11-20 10-14 9-11 11-12 11-10 16-12 15-9 15-8 19-7 13-4 21-4z" fill="#000270"/>
<path transform="translate(436,250)" d="m0 0h328l2 7 4 22 6 21 9 21 8 15 8 12 8 10 12 14 8 8 14 11 10 8v4l-13 23-13 22-30 52-28 48-13 23-10 17-16 28-14 24-11 19-12 21-3 3-16-7-24-8-20-4-19-2h-20l-21 2-23 5-23 8-11 5-3-1-13-23-10-17-15-26-14-24-15-26-14-24-30-52-14-24-30-52-7-12 2-4 14-11 10-9 8-7 18-22 11-18 8-16 8-21 6-25 2-15z" fill="#F7F7F8"/>
<path transform="translate(949,67)" d="m0 0h24l23 3 22 6 21 9 17 10 13 10 12 11 7 7 11 14 10 16 8 16 7 21 4 18 2 18v20l-3 22-5 19-8 20-10 18-10 14-12 13-9 9-14 11-13 8-16 8-15 6-19 5-21 3h-25l-23-3-21-6-21-9-14-8-11-8-11-9-15-15-12-16-8-13-9-19-5-15-4-17-2-14v-30l2-15 4-17 6-18 8-16 9-15 11-14 11-12 10-9 17-12 16-9 20-8 19-5z" fill="#86BFFD"/>
<path transform="translate(226,67)" d="m0 0h25l22 3 22 6 17 7 15 8 17 12 10 9 5 4 7 8 12 15 11 19 6 13 7 21 4 20 1 8v31l-3 19-6 21-9 21-11 18-11 14-19 19-13 10-19 11-18 8-20 6-16 3-11 1h-24l-22-3-19-5-20-8-15-8-14-10-13-11-12-12-10-13-9-14-11-23-6-19-3-13-2-16v-23l2-17 6-25 8-20 9-17 13-17 9-10 11-11 16-12 13-8 17-8 17-6 17-4z" fill="#86BFFD"/>
<path transform="translate(584,691)" d="m0 0h31l21 3 24 7 20 9 13 8 11 8 13 11 10 10 13 17 9 15 7 15 7 21 4 19 1 8v34l-3 19-5 18-8 19-9 16-10 14-9 10-7 8-8 7-13 10-15 9-17 8-21 7-21 4-12 1h-17l-20-2-25-6-20-8-15-8-17-12-12-11-13-13-11-15-11-19-8-20-5-17-3-17-1-12v-17l3-22 5-20 6-16 8-16 9-14 11-14 16-16 13-10 18-11 17-8 22-7 16-3z" fill="#86BFFD"/>
<path transform="translate(953,37)" d="m0 0h17l20 2 20 4 20 6 25 11 18 11 13 10 14 12 7 7 9 11 10 13 11 19 9 19 7 22 4 18 2 15v35l-4 25-6 21-8 20-9 17-10 15-8 10-11 12-10 10-14 11-10 7-17 10-18 8-18 6-22 5-15 2h-35l-26-4-24-7-14-5-9 15-16 28-30 52-11 19-14 24-12 21-15 26-10 17-15 26-12 21-14 24-6 9-5-1-19-11 1-7 13-23 28-48 15-26 12-21 15-26 28-48 16-28 10-17 14-24 8-14v-4l-18-14-13-12-11-12-12-16-10-16-10-21-7-21-5-23-2-14h-326l-2-1v-28l327-1 1-1 4-25 7-25 9-21 8-15 10-15 8-10 11-12 8-8 11-9 14-10 15-9 19-9 21-7 18-4zm-4 30-22 3-19 5-24 10-15 9-16 12-16 15-11 14-10 15-8 15-6 16-5 19-2 10-1 10v30l4 24 6 19 8 18 6 11 9 13 11 13 14 14 13 10 18 11 18 8 18 6 14 3 17 2h25l21-3 22-6 21-9 14-8 11-8 13-11 13-13 10-13 8-13 8-16 6-15 5-19 3-22v-20l-3-24-6-22-6-15-8-16-11-16-12-14-11-11-17-13-21-12-20-8-19-5-23-3z" fill="#000270"/>
<path transform="translate(591,661)" d="m0 0h20l19 2 20 4 27 9 14 6 1 3 5 2 19 11 16 13 10 9 7 8 10 12 10 15 7 12 10 23 6 18 4 19 2 18v25l-3 24-5 20-6 18-10 21-11 18-13 16-11 12-12 11-19 14-18 10-17 8-26 8-23 4-8 1h-32l-27-4-21-6-15-6-16-8-12-7-14-10-14-12-14-14-13-17-8-13-9-16-8-20-6-22-3-15-1-9v-35l4-26 5-17 7-19 10-19 10-16 18-22h2l2-4 13-12 11-8 1-2 7-3 22-13 20-8 20-6 15-3zm-7 30-19 3-15 4-19 7-19 10-17 12-13 12-10 10-12 16-8 14-7 14-7 21-5 25-1 10v17l2 19 5 21 7 19 8 16 10 16 11 13 17 17 18 13 16 9 14 6 15 5 18 4 20 2h17l18-2 18-4 18-6 21-10 15-10 11-9 12-11 9-11 7-9 8-13 8-15 7-19 5-23 1-8v-34l-3-19-6-21-8-19-6-11-8-12-8-10-9-10-7-7-14-11-14-9-16-8-15-6-18-5-21-3z" fill="#000270"/>
<path transform="translate(908,150)" d="m0 0h19l1 61 10-10 12-6 10-2h8l10 2 14 7 8 8 8 13 4 12 2 13v14l-3 17-5 13-7 11-8 7-14 7-5 1h-15l-13-4-10-7-6-6-1 14h-20v-164z" fill="#01020D"/>
<path transform="translate(854,401)" d="m0 0 4 1 16 8 5 3-1 6-7 11-16 28-30 52-11 19-14 24-12 21-15 26-10 17-15 26-12 21-14 24-6 9-5-1-19-11 1-7 13-23 28-48 15-26 12-21 15-26 28-48 16-28 10-17 14-24 8-14z" fill="#010205"/>
<path transform="translate(345,400)" d="m0 0 4 1 16 28 15 26 14 24 15 26 14 24 30 52 14 24 30 52 10 17 4 7-1 3-20 12h-5l-15-26-12-21-28-48-30-52-14-24-15-26-14-24-15-26-16-28-3-5v-4l19-10z" fill="#010205"/>
<path transform="translate(436,221)" d="m0 0h328v28l-4 1h-322l-2-1z" fill="#010205"/>
<path transform="translate(234,193)" d="m0 0h10l16 3 12 6 6 5 7 11 4 13 1 7v71l-1 6h-19l-1-14-10 9-12 6-9 2h-16l-9-2-11-6-7-8-4-8-2-9v-10l3-11 5-8 8-8 11-5 14-3 40-1-3-12-4-7-9-6-9-2h-19l-15 3-10 4h-3v-17l8-4 17-4z" fill="#01020E"/>
<path transform="translate(952,211)" d="m0 0h16l9 4 5 4 6 10 4 13 1 18-2 15-3 8-5 8-8 7-9 3h-12l-11-4-5-4-6-10-3-7-2-14v-13l3-16 5-10 4-5 9-6z" fill="#86BFFD"/>
<path transform="translate(598,807)" d="m0 0h23l17 4 5 2 1 18-3 1-12-5-12-2h-15l-9 2-10 6-7 9-4 10-1 6v22l4 14 7 10 9 6 9 3h19l16-4 6-3h3l-1 18-8 4-15 3h-23l-15-4-10-6-10-9-8-13-4-12-1-6v-24l4-16 6-11 9-10 10-7 14-5z" fill="#01020E"/>
<path transform="translate(241,256)" d="m0 0h27l2 2-1 15-4 11-7 9-7 5-10 3h-14l-9-4-5-4-3-6-1-4v-8l3-9 6-5 11-4z" fill="#86BFFD"/>
<path transform="translate(269,297)" d="m0 0 3 1-1 16h11v1h-12z" fill="#000270"/>
</svg>
